<svg width="140" height="80" viewBox="0 0 140 80" fill="none" xmlns="http://www.w3.org/2000/svg">
<path d="M54.7682 10.5L14.1885 41.5" stroke="#FAD308" stroke-width="4"/>
<path d="M92.5797 42.5L52 10.5" stroke="#FAD308" stroke-width="4"/>
<path d="M73 8.5H70V25.5H73V8.5Z" fill="#FAD308"/>
<path d="M14 68.5H113" stroke="#FAD308" stroke-width="2"/>
<path d="M53.2364 59.0531C53.0052 58.8778 52.9503 58.7016 53.0719 58.5253L53.5105 57.8848C53.6549 57.6753 53.8633 57.6657 54.1356 57.8565C54.3446 58.0021 54.6173 58.1543 54.9537 58.3123C55.294 58.4665 55.6517 58.5459 56.027 58.5489C56.2897 58.551 56.5433 58.5227 56.7876 58.4656C57.032 58.4084 57.2187 58.2955 57.3477 58.1261C57.4767 57.9574 57.5422 57.7557 57.5441 57.5231C57.5455 57.3565 57.5185 57.21 57.4633 57.0838C57.408 56.9576 57.3169 56.8539 57.19 56.771C57.0631 56.6889 56.9323 56.619 56.7976 56.5626C56.562 56.4645 56.2645 56.3681 55.905 56.2728C55.5493 56.1738 55.1975 56.0558 54.8496 55.9197C54.5391 55.7992 54.2552 55.6342 53.998 55.4249C53.7408 55.2157 53.542 54.9811 53.4015 54.721C53.261 54.461 53.1926 54.1146 53.1961 53.6818C53.2004 53.1676 53.3728 52.7288 53.7136 52.3653C54.0544 52.0018 54.4447 51.77 54.8846 51.6699C55.3245 51.5699 55.7677 51.5216 56.2143 51.5252C56.6571 51.5287 57.1125 51.5989 57.5805 51.7359C58.0522 51.8728 58.4073 52.0421 58.6458 52.2438C58.8806 52.4417 58.9373 52.6198 58.816 52.7778L58.355 53.379C58.1995 53.5849 57.993 53.5999 57.7354 53.424C57.5712 53.3117 57.3452 53.1859 57.0574 53.0468C56.7733 52.9076 56.4755 52.8368 56.1641 52.8344C55.9427 52.8326 55.7381 52.8494 55.5501 52.8849C55.3659 52.9204 55.202 53.0079 55.0582 53.1473C54.9145 53.2867 54.8417 53.46 54.84 53.6671C54.8384 53.8669 54.8896 54.0301 54.9936 54.1567C55.0977 54.2796 55.2133 54.373 55.3403 54.4369C55.4674 54.4971 55.5964 54.5481 55.7274 54.5898C56.1317 54.7225 56.4929 54.8401 56.811 54.9425C57.1292 55.0412 57.4229 55.1509 57.6921 55.2714C58.066 55.4409 58.3516 55.6096 58.5492 55.7776C58.7467 55.9456 58.9081 56.1741 59.0333 56.4638C59.1622 56.7535 59.2251 57.0979 59.2218 57.4979C59.2169 58.0895 59.0215 58.5782 58.6355 58.9637C58.2496 59.3447 57.8217 59.589 57.3517 59.6967C56.8854 59.8073 56.4309 59.8613 55.9881 59.8577C55.3351 59.8525 54.8046 59.7854 54.3967 59.6563C53.9886 59.5311 53.6019 59.3303 53.2364 59.0531ZM60.2651 53.1668C59.9836 53.1645 59.8439 53.0432 59.8459 52.8027L59.8517 52.1036C59.8536 51.8632 59.9953 51.7441 60.2768 51.7464L66.0633 51.7927C66.3447 51.7949 66.4844 51.9163 66.4825 52.1566L66.4767 52.8558C66.4747 53.0962 66.333 53.2153 66.0516 53.2131L63.9802 53.1965L63.9289 59.4273C63.9272 59.6311 63.8325 59.7318 63.6449 59.7303L62.5641 59.7217C62.3765 59.7202 62.2835 59.6179 62.2852 59.4141L62.3365 53.1834L60.2651 53.1668ZM66.2792 59.7514C66.0091 59.7492 65.9218 59.6266 66.0177 59.3834L68.8347 52.2642C68.9534 51.9656 69.131 51.8172 69.3674 51.8191L70.1555 51.8254C70.3919 51.8273 70.567 51.9785 70.6809 52.279L73.3803 59.4423C73.472 59.687 73.3829 59.8082 73.1127 59.8061L72.2177 59.7989C71.97 59.7969 71.7984 59.6683 71.7029 59.4122L71.1411 57.9145L68.2817 57.8916L67.6952 59.3801C67.5956 59.6347 67.4218 59.7605 67.1742 59.7586L66.2792 59.7514ZM68.8164 56.5201L70.6289 56.5346L69.9511 54.7646C69.8703 54.5568 69.8209 54.4066 69.8029 54.314C69.7887 54.2177 69.7729 54.077 69.7557 53.8919L69.7332 53.8917C69.7129 54.0765 69.6929 54.2169 69.6734 54.3129C69.6576 54.4053 69.6076 54.5547 69.5233 54.7612L68.8164 56.5201ZM74.7732 59.8193C74.5105 59.8172 74.3803 59.6776 74.3826 59.4003L74.4413 52.2758C74.4436 51.9984 74.576 51.8608 74.8387 51.8629L75.6718 51.8695C75.9945 51.8721 76.2374 52.0035 76.4003 52.2638L79.2337 56.8307L79.273 56.831C79.2561 56.6089 79.2486 56.3868 79.2504 56.1649L79.2821 52.3146C79.2844 52.0371 79.4169 51.8995 79.6795 51.9016L80.5351 51.9084C80.7978 51.9105 80.928 52.0503 80.9257 52.3277L80.8671 59.4522C80.8648 59.7294 80.7323 59.867 80.4696 59.8649L79.6928 59.8587C79.3701 59.8561 79.1272 59.7246 78.9643 59.4642L76.0754 54.8136L76.0359 54.8133C76.0529 55.0354 76.0604 55.2574 76.0586 55.4793L76.0262 59.4134C76.0239 59.6907 75.8914 59.8283 75.6288 59.8262L74.7732 59.8193ZM83.0589 59.8856C82.7962 59.8835 82.666 59.7438 82.6683 59.4666L82.7269 52.3421C82.7292 52.0647 82.8617 51.927 83.1244 51.9291L85.0889 51.9449C86.8151 51.9587 87.9793 52.312 88.5815 53.0049C89.1875 53.6978 89.4854 54.6786 89.4749 55.9473C89.4645 57.2163 89.1505 58.1957 88.5331 58.8862C87.9195 59.5768 86.7496 59.9151 85.0234 59.9013L83.0589 59.8856ZM84.3198 58.5199L84.9278 58.5248C86.0911 58.5341 86.8452 58.3272 87.1902 57.9042C87.5353 57.4782 87.7114 56.8212 87.7187 55.9333C87.726 55.0455 87.5607 54.3895 87.2226 53.965C86.8847 53.5369 86.134 53.3182 84.9707 53.3089L84.3628 53.304L84.3198 58.5199ZM90.5735 59.9457C90.3033 59.9436 90.2161 59.8209 90.3119 59.5777L93.1289 52.4586C93.2476 52.1599 93.4252 52.0115 93.6617 52.0134L94.4498 52.0197C94.6862 52.0216 94.8613 52.1728 94.9751 52.4734L97.6745 59.6366C97.7663 59.8813 97.6771 60.0026 97.407 60.0004L96.5119 59.9932C96.2642 59.9913 96.0927 59.8626 95.9972 59.6065L95.4354 58.1088L92.5759 58.0859L91.9894 59.5745C91.8898 59.829 91.7161 59.9549 91.4684 59.9529L90.5735 59.9457ZM93.1107 56.7144L94.9232 56.7289L94.2454 54.959C94.1646 54.7512 94.1151 54.6009 94.0971 54.5083C94.0829 54.412 94.0671 54.2713 94.0499 54.0862L94.0274 54.086C94.0071 54.2708 93.9872 54.4113 93.9677 54.5073C93.9518 54.5996 93.9019 54.7491 93.8176 54.9555L93.1107 56.7144ZM99.0674 60.0137C98.8048 60.0116 98.6746 59.8719 98.6768 59.5946L98.7355 52.4702C98.7378 52.1928 98.8703 52.0551 99.133 52.0572L101.739 52.0781C102.899 52.0873 103.743 52.2716 104.273 52.631C104.803 52.9867 105.065 53.5621 105.059 54.3574C105.054 54.9493 104.834 55.4191 104.4 55.7671C103.965 56.115 103.415 56.3438 102.75 56.4529L102.75 56.4642C103.109 56.6004 103.38 56.7875 103.562 57.0253C103.744 57.2639 103.892 57.4719 104.007 57.6508L105.229 59.5857C105.433 59.9055 105.361 60.064 105.012 60.0612L104.032 60.0534C103.826 60.0517 103.658 59.9413 103.528 59.7221L102.407 57.8434C102.284 57.6424 102.059 57.4224 101.731 57.1826C101.406 56.9399 101.083 56.8168 100.76 56.8142L100.344 56.8109L100.32 59.6078C100.318 59.885 100.186 60.0226 99.923 60.0205L99.0674 60.0137ZM100.355 55.4351L101.362 55.4432C102.113 55.4492 102.646 55.3702 102.963 55.2063C103.283 55.0387 103.445 54.7718 103.448 54.4056C103.451 54.0061 103.3 53.7459 102.993 53.6251C102.69 53.5006 102.242 53.436 101.649 53.4312L100.371 53.421L100.355 55.4351ZM106.478 53.5365C106.197 53.5342 106.057 53.4129 106.059 53.1724L106.065 52.4733C106.067 52.2329 106.208 52.1138 106.49 52.1161L112.276 52.1623C112.558 52.1646 112.698 52.2859 112.696 52.5263L112.69 53.2255C112.688 53.4659 112.546 53.585 112.265 53.5827L110.193 53.5662L110.142 59.797C110.14 60.0007 110.046 60.1015 109.858 60.1L108.777 60.0914C108.59 60.0899 108.497 59.9876 108.498 59.7838L108.55 53.553L106.478 53.5365ZM113.613 56.6231C113.388 56.6213 113.276 56.528 113.278 56.3431L113.282 55.8659C113.283 55.681 113.397 55.5894 113.622 55.5912L115.941 55.6097L115.959 53.3237C115.961 53.1018 116.056 52.9916 116.243 52.9931L116.728 52.997C116.915 52.9985 117.009 53.1102 117.007 53.3321L116.988 55.6181L119.307 55.6366C119.532 55.6384 119.644 55.7318 119.643 55.9168L119.639 56.394C119.637 56.5789 119.523 56.6704 119.298 56.6686L116.98 56.65L116.961 58.9363C116.959 59.1583 116.864 59.2681 116.676 59.2666L116.192 59.2628C116.004 59.2613 115.911 59.1499 115.913 58.9279L115.932 56.6417L113.613 56.6231Z" fill="#FAD308"/>
<path d="M45 62.5042V32.5" stroke="#FAD308"/>
<path d="M23 68.5L23 35.5" stroke="#FAD308" stroke-width="2"/>
<line x1="61.5" y1="47.5" x2="61.5" y2="32.5" stroke="#FAD308"/>
<line x1="45" y1="33" x2="62" y2="33" stroke="#FAD308"/>
<line x1="45" y1="63" x2="125" y2="63" stroke="#FAD308"/>
</svg>
